<svg width="460" height="196" viewBox="0 0 460 196" fill="none" xmlns="http://www.w3.org/2000/svg">
<g clip-path="url(#clip0_1613_18158)">
<path d="M147.659 156.2H126.678V193.023H75.809V156.2H0V118.585L79.1738 2.77148H126.678V117.794H147.659V156.2ZM75.809 117.794V95.6206C75.809 91.4632 76.0069 85.92 76.2048 78.7929C76.6007 71.6659 76.7986 68.1024 76.9966 67.7065H75.611C72.642 74.4376 69.2771 80.5747 65.5163 86.5139L44.5353 117.794H75.809Z" fill="#152039"/>
<path d="M298.486 98.1944C298.486 131.85 292.746 156.596 281.661 172.236C270.379 187.876 253.159 195.795 229.802 195.795C207.04 195.795 190.018 187.678 178.339 171.246C166.859 154.815 161.119 130.464 161.119 98.1944C161.119 64.3411 166.661 39.5945 178.142 23.7567C189.424 7.9189 206.644 0 230 0C252.565 0 269.785 8.31485 281.265 24.7466C292.746 41.1783 298.486 65.5289 298.486 98.1944ZM212.186 98.1944C212.186 119.773 213.572 134.621 216.145 142.54C218.916 150.657 223.271 154.617 229.605 154.617C235.938 154.617 240.491 150.459 243.262 142.144C245.835 133.829 247.221 119.179 247.221 98.1944C247.221 77.0113 245.835 62.3614 243.262 53.8485C240.491 45.3357 236.136 41.1783 229.802 41.1783C223.469 41.1783 218.916 45.3357 216.343 53.4526C213.572 61.5695 212.186 76.4174 212.186 98.1944Z" fill="#152039"/>
<path d="M460.001 156.2H439.02V193.023H388.151V156.2H312.342V118.585L391.516 2.77148H439.02V117.794H460.001V156.2ZM388.349 117.794V95.6206C388.349 91.4632 388.547 85.92 388.745 78.7929C389.14 71.6659 389.338 68.1024 389.536 67.7065H388.151C385.182 74.4376 381.817 80.5747 378.056 86.5139L356.877 117.992H388.349V117.794Z" fill="#152039"/>
</g>
<g clip-path="url(#clip1_1613_18158)">
<path d="M280.341 103.163C295.869 103.163 308.457 90.5574 308.457 75.0073C308.457 59.4573 295.869 46.8516 280.341 46.8516C264.813 46.8516 252.225 59.4573 252.225 75.0073C252.225 90.5574 264.813 103.163 280.341 103.163Z" fill="white"/>
<path d="M187.839 103.163C203.367 103.163 215.955 90.5574 215.955 75.0073C215.955 59.4573 203.367 46.8516 187.839 46.8516C172.311 46.8516 159.723 59.4573 159.723 75.0073C159.723 90.5574 172.311 103.163 187.839 103.163Z" fill="white"/>
<path d="M204.37 52.2832C207.248 56.7172 208.908 61.9641 208.908 67.6543C208.908 83.2102 196.326 95.8101 180.792 95.8101C174.593 95.8101 168.874 93.7779 164.225 90.3785C169.243 98.101 177.914 103.163 187.802 103.163C203.337 103.163 215.919 90.5632 215.919 75.0074C215.919 65.696 211.38 57.4192 204.37 52.2832Z" fill="#EFEFEF"/>
<path d="M296.872 52.2832C299.75 56.7172 301.41 61.9641 301.41 67.6543C301.41 83.2102 288.828 95.8101 273.294 95.8101C267.095 95.8101 261.376 93.7779 256.727 90.3785C261.745 98.101 270.416 103.163 280.304 103.163C295.838 103.163 308.421 90.5632 308.421 75.0074C308.421 65.696 303.845 57.4192 296.872 52.2832Z" fill="#EFEFEF"/>
<path d="M187.837 104.493C171.639 104.493 158.43 91.2652 158.43 75.0442C158.43 58.8233 171.639 45.5952 187.837 45.5952C204.036 45.5952 217.245 58.8233 217.245 75.0442C217.245 91.2652 204.036 104.493 187.837 104.493ZM187.837 48.1448C173.041 48.1448 161.013 60.1904 161.013 75.0073C161.013 89.8242 173.041 101.87 187.837 101.87C202.634 101.87 214.662 89.8242 214.662 75.0073C214.662 60.2274 202.634 48.1448 187.837 48.1448Z" fill="#9C1515"/>
<path d="M177.84 79.5522C185.36 79.5522 191.455 73.4478 191.455 65.9177C191.455 58.3876 185.36 52.2832 177.84 52.2832C170.32 52.2832 164.225 58.3876 164.225 65.9177C164.225 73.4478 170.32 79.5522 177.84 79.5522Z" fill="#9C1515"/>
<path d="M174.519 69.0216C177.596 69.0216 180.09 66.5237 180.09 63.4422C180.09 60.3608 177.596 57.8628 174.519 57.8628C171.442 57.8628 168.947 60.3608 168.947 63.4422C168.947 66.5237 171.442 69.0216 174.519 69.0216Z" fill="white"/>
<path d="M280.343 104.493C264.145 104.493 250.936 91.2652 250.936 75.0442C250.936 58.8233 264.145 45.5952 280.343 45.5952C296.541 45.5952 309.751 58.8233 309.751 75.0442C309.751 91.2652 296.541 104.493 280.343 104.493ZM280.343 48.1448C265.547 48.1448 253.518 60.1904 253.518 75.0073C253.518 89.8242 265.547 101.87 280.343 101.87C295.139 101.87 307.168 89.8242 307.168 75.0073C307.168 60.2274 295.139 48.1448 280.343 48.1448Z" fill="#9C1515"/>
<path d="M288.754 98.2856C296.274 98.2856 302.369 92.1812 302.369 84.6511C302.369 77.121 296.274 71.0166 288.754 71.0166C281.234 71.0166 275.139 77.121 275.139 84.6511C275.139 92.1812 281.234 98.2856 288.754 98.2856Z" fill="#9C1515"/>
<path d="M285.435 87.755C288.512 87.755 291.006 85.2571 291.006 82.1756C291.006 79.0942 288.512 76.5962 285.435 76.5962C282.358 76.5962 279.863 79.0942 279.863 82.1756C279.863 85.2571 282.358 87.755 285.435 87.755Z" fill="white"/>
<path d="M151.862 36.7273C156.622 42.1959 160.902 32.2934 175.624 29.1896C187.911 26.6031 195.586 32.7737 197.726 28.118C199.866 23.4623 190.051 16.9592 171.971 19.8413C158.504 21.9474 146.327 30.372 151.862 36.7273Z" fill="#9C1515"/>
<path d="M315.947 37.614C310.892 42.824 307.166 32.6997 292.628 28.783C280.489 25.5314 272.482 31.2587 270.6 26.4921C268.718 21.7256 278.865 15.7767 296.761 19.6195C310.118 22.5016 321.814 31.5543 315.947 37.614Z" fill="#9C1515"/>
<path d="M229.938 166.163C220.935 166.163 214.109 158.255 207.43 150.533C201.379 143.512 195.106 136.233 187.69 135.901C170.975 135.125 152.858 158.625 152.674 158.847C151.751 160.066 150.017 160.288 148.799 159.364C147.582 158.44 147.36 156.703 148.283 155.484C149.095 154.45 167.654 130.358 186.878 130.358C187.247 130.358 187.579 130.358 187.948 130.395C197.726 130.876 204.774 139.041 211.6 146.949C218.832 155.336 225.105 162.579 233.185 160.14C240.86 157.812 247.686 150.459 254.328 143.365C262.63 134.46 271.19 125.259 281.743 126.405C291.853 127.513 300.155 133.684 305.8 144.251C309.933 152.011 311.151 159.401 311.188 159.696C311.446 161.211 310.413 162.615 308.9 162.874C307.387 163.133 305.985 162.098 305.727 160.583C305.69 160.325 301.151 134.053 281.153 131.91C273.367 131.06 266.098 138.894 258.387 147.133C251.265 154.745 243.923 162.652 234.809 165.424C233.111 165.904 231.488 166.163 229.938 166.163Z" fill="#9C1515"/>
<path d="M140.793 150.459C138.69 155.706 139.575 161.988 142.786 166.606C143.708 167.937 144.778 169.119 146.07 170.117C146.475 170.449 147.029 170.523 147.398 170.117C147.73 169.784 147.804 169.082 147.398 168.786C143.302 165.572 141.199 160.325 141.605 155.152C141.716 153.711 142.085 152.307 142.601 150.94C142.786 150.459 142.38 149.905 141.937 149.757C141.42 149.646 140.978 149.979 140.793 150.459Z" fill="#9C1515"/>
<path d="M307.942 171.188C311.3 171.742 314.362 169.599 316.465 167.16C318.458 164.833 319.897 161.951 320.487 158.958C320.819 157.221 320.93 155.447 320.746 153.711C320.709 153.193 320.34 152.75 319.786 152.75C319.307 152.75 318.79 153.193 318.827 153.711C319.38 158.995 317.203 164.87 312.813 168.01C311.558 168.897 310.008 169.636 308.422 169.377C307.905 169.304 307.389 169.525 307.241 170.043C307.167 170.486 307.425 171.114 307.942 171.188Z" fill="#9C1515"/>
</g>
<defs>
<clipPath id="clip0_1613_18158">
<rect width="460" height="195.795" fill="white"/>
</clipPath>
<clipPath id="clip1_1613_18158">
<rect width="181.169" height="152.862" fill="white" transform="translate(139.65 18.3999)"/>
</clipPath>
</defs>
</svg>
